<svg width="67" height="55" fill="none" xmlns="http://www.w3.org/2000/svg"><path d="M63.714 53.782c-.001-.578.564-1.047 1.26-1.05.697-.001 1.264.465 1.265 1.043 0 .578-.564 1.048-1.261 1.05-.697.002-1.263-.465-1.264-1.043zm-9.089.024c-.001-.578.563-1.047 1.26-1.05.698-.001 1.264.466 1.264 1.044.001.577-.563 1.047-1.26 1.049-.697.002-1.263-.465-1.264-1.043zm-9.09.024c0-.578.564-1.047 1.261-1.049.697-.002 1.263.465 1.264 1.043.001.578-.563 1.047-1.26 1.049-.698.002-1.264-.465-1.264-1.043zm-9.089.025c0-.578.563-1.048 1.26-1.05.698-.002 1.264.465 1.265 1.043 0 .578-.564 1.047-1.26 1.05-.698.001-1.264-.466-1.265-1.044zm-9.09.024c0-.578.564-1.048 1.261-1.05.698-.002 1.263.465 1.264 1.043.001.578-.563 1.047-1.26 1.05-.697.001-1.263-.465-1.264-1.043zm-9.089.024c0-.578.564-1.048 1.26-1.05.698-.001 1.265.465 1.266 1.043 0 .578-.564 1.048-1.262 1.05-.696.001-1.263-.465-1.264-1.043zm-9.089.024c0-.578.564-1.048 1.261-1.05.698-.001 1.263.465 1.264 1.043.001.578-.563 1.048-1.26 1.05-.698.002-1.264-.465-1.265-1.043zm-9.09.024c0-.578.565-1.047 1.262-1.05.697-.001 1.263.466 1.264 1.043 0 .578-.563 1.048-1.26 1.05-.698.002-1.264-.465-1.265-1.043zm63.613-7.701c0-.578.564-1.048 1.26-1.05.698-.002 1.264.465 1.265 1.043.001.578-.564 1.047-1.26 1.05-.697.001-1.264-.466-1.265-1.043zm-9.088.024c-.001-.578.563-1.048 1.26-1.05.697-.002 1.263.465 1.264 1.043.001.578-.563 1.047-1.26 1.05-.698.001-1.264-.465-1.264-1.043zm-9.09.024c0-.578.563-1.048 1.26-1.05.698-.001 1.264.465 1.265 1.043 0 .578-.564 1.048-1.26 1.05-.698.001-1.264-.465-1.265-1.043zm-9.09.024c0-.578.564-1.047 1.261-1.05.698-.001 1.263.465 1.264 1.043.001.578-.563 1.048-1.26 1.05-.697.002-1.263-.465-1.264-1.043zm-9.089.024c0-.578.564-1.047 1.26-1.05.698-.001 1.264.466 1.265 1.044 0 .577-.563 1.047-1.26 1.049-.698.002-1.264-.465-1.265-1.043zm-9.089.024c0-.578.564-1.047 1.26-1.049.698-.002 1.264.465 1.265 1.043.001.578-.564 1.047-1.261 1.049-.696.002-1.263-.465-1.264-1.043zm-9.09.025c0-.578.565-1.048 1.262-1.05.697-.002 1.263.465 1.264 1.043 0 .578-.563 1.047-1.26 1.05-.698.001-1.264-.466-1.265-1.044zm-9.089.024c0-.578.564-1.048 1.262-1.05.697-.002 1.263.465 1.263 1.043.001.578-.563 1.047-1.26 1.05-.697.001-1.264-.466-1.265-1.043zm63.613-7.702c-.001-.578.564-1.047 1.26-1.05.698-.001 1.264.466 1.265 1.043.001.578-.564 1.048-1.261 1.05-.697.002-1.263-.465-1.264-1.043zm-9.089.024c0-.578.563-1.047 1.26-1.05.698-.001 1.264.466 1.265 1.044 0 .577-.564 1.047-1.26 1.049-.698.002-1.264-.465-1.265-1.043zm-9.09.024c0-.577.564-1.047 1.261-1.049.698-.002 1.263.465 1.264 1.043.001.578-.563 1.047-1.26 1.05-.697 0-1.263-.466-1.264-1.044zm-9.089.025c0-.578.564-1.048 1.26-1.05.698-.002 1.264.465 1.265 1.043 0 .578-.563 1.047-1.26 1.05-.698.001-1.264-.466-1.265-1.043zm-9.089.024c0-.578.563-1.048 1.26-1.05.698-.002 1.264.465 1.265 1.043 0 .578-.564 1.047-1.261 1.05-.697.001-1.263-.465-1.264-1.043zm-9.09.024c0-.578.565-1.048 1.261-1.05.697-.001 1.264.465 1.265 1.043 0 .578-.564 1.048-1.261 1.05-.697.001-1.263-.465-1.264-1.043zm-9.089.024c0-.578.564-1.047 1.261-1.05.698-.001 1.264.466 1.264 1.043.001.578-.563 1.048-1.26 1.05-.697.002-1.264-.465-1.265-1.043zm-9.09.024c0-.578.565-1.047 1.262-1.05.697-.001 1.263.466 1.264 1.044.001.577-.563 1.047-1.26 1.049-.698.002-1.264-.465-1.265-1.043zm63.613-7.701c0-.578.564-1.048 1.26-1.05.698-.002 1.265.465 1.266 1.043 0 .578-.564 1.048-1.262 1.05-.696.002-1.263-.466-1.264-1.043zm-9.088.024c-.001-.578.563-1.048 1.26-1.05.698-.001 1.263.465 1.264 1.043.001.578-.563 1.048-1.26 1.05-.697.002-1.263-.465-1.264-1.043zm-9.09.024c0-.578.564-1.048 1.26-1.05.698-.001 1.264.465 1.265 1.043 0 .578-.563 1.048-1.26 1.05-.698.002-1.264-.465-1.265-1.043zm-9.089.024c0-.578.563-1.047 1.26-1.05.698-.001 1.264.466 1.265 1.043 0 .578-.564 1.049-1.261 1.05-.697.002-1.263-.465-1.264-1.043zm-9.09.024c0-.578.564-1.047 1.261-1.05.697-.001 1.263.466 1.264 1.043.001.578-.563 1.049-1.26 1.05-.698.002-1.263-.465-1.264-1.043zm-9.089.024c0-.577.564-1.047 1.26-1.049.698-.002 1.265.465 1.266 1.043 0 .578-.564 1.048-1.262 1.05-.696.002-1.263-.466-1.264-1.044zm-9.09.025c0-.578.565-1.048 1.262-1.05.697-.002 1.263.465 1.264 1.043.001.578-.563 1.048-1.26 1.05-.698.002-1.264-.466-1.265-1.043zm-9.089.024c0-.578.564-1.048 1.262-1.05.697-.002 1.263.465 1.264 1.043 0 .578-.564 1.048-1.26 1.05-.698.002-1.265-.465-1.266-1.043zm63.613-7.701c0-.578.564-1.048 1.26-1.05.698-.002 1.264.465 1.265 1.043.001.578-.564 1.048-1.261 1.05-.697.001-1.263-.465-1.264-1.043zm-9.089.024c0-.578.564-1.048 1.26-1.05.698-.002 1.264.465 1.265 1.043 0 .578-.563 1.048-1.26 1.05-.698.002-1.264-.465-1.265-1.043zm-9.089.024c0-.578.563-1.048 1.26-1.05.698-.002 1.264.466 1.264 1.043.001.578-.563 1.048-1.26 1.05-.697.002-1.263-.465-1.264-1.043zm-9.09.024c0-.578.564-1.048 1.261-1.05.697-.002 1.263.466 1.264 1.044.001.577-.563 1.047-1.26 1.049-.698.002-1.263-.465-1.264-1.043zm-9.089.024c0-.577.564-1.048 1.26-1.05.698-.001 1.264.466 1.265 1.044 0 .578-.564 1.047-1.26 1.05-.698 0-1.264-.466-1.265-1.044zm-9.09.025c0-.578.565-1.049 1.261-1.05.698-.002 1.264.465 1.265 1.043.001.578-.564 1.047-1.261 1.05-.697.001-1.263-.466-1.264-1.043zm-9.089.024c0-.578.564-1.048 1.262-1.05.697-.002 1.263.465 1.264 1.043 0 .578-.563 1.047-1.26 1.05-.698.001-1.265-.465-1.266-1.043zm-9.089.024c0-.578.564-1.048 1.261-1.05.698-.002 1.263.465 1.264 1.043.001.578-.563 1.048-1.26 1.05C.607 24.866.04 24.4.039 23.822zm63.613-7.702c-.001-.578.564-1.048 1.26-1.05.697-.002 1.264.466 1.265 1.043 0 .578-.564 1.048-1.261 1.05-.697.002-1.263-.465-1.264-1.043zm-9.089.024c0-.577.563-1.048 1.26-1.05.698-.001 1.264.466 1.264 1.043.001.578-.563 1.048-1.26 1.05-.697.002-1.263-.465-1.264-1.043zm-9.09.024c0-.577.564-1.047 1.261-1.05.697-.001 1.263.466 1.264 1.043.001.578-.563 1.048-1.26 1.05-.698.002-1.263-.465-1.264-1.043zm-9.089.024c0-.577.563-1.047 1.26-1.05.698-.001 1.264.466 1.265 1.044 0 .577-.563 1.048-1.26 1.05-.698.001-1.264-.466-1.265-1.044zm-9.09.024c0-.577.564-1.047 1.261-1.05.698 0 1.263.466 1.264 1.044.001.577-.563 1.048-1.26 1.05-.698.002-1.263-.466-1.264-1.044zm-9.088.024c-.002-.577.564-1.047 1.26-1.049.697-.002 1.264.466 1.265 1.043 0 .578-.564 1.048-1.262 1.05-.696.002-1.263-.466-1.264-1.043zm-9.09.025c0-.578.564-1.048 1.261-1.05.698-.002 1.263.466 1.264 1.043.001.578-.563 1.048-1.26 1.05-.697.002-1.264-.465-1.265-1.043zm-9.09.024c0-.577.565-1.048 1.262-1.05.697-.002 1.263.466 1.264 1.043 0 .578-.563 1.048-1.26 1.05-.698.002-1.264-.465-1.265-1.043zM63.64 8.588c0-.578.564-1.048 1.26-1.05.698-.001 1.264.465 1.266 1.043 0 .578-.565 1.048-1.262 1.05-.696.001-1.263-.465-1.264-1.043zm-9.088.024c-.001-.578.563-1.047 1.26-1.05.697-.001 1.263.465 1.264 1.043.001.578-.563 1.048-1.26 1.05-.698.002-1.263-.465-1.264-1.043zm-9.09.024c0-.578.564-1.047 1.26-1.05.698-.001 1.264.466 1.265 1.043 0 .578-.563 1.048-1.26 1.05-.698.002-1.264-.465-1.265-1.043zm-9.09.024c0-.578.564-1.047 1.261-1.049.698-.002 1.263.465 1.264 1.043.001.577-.563 1.047-1.26 1.049-.698.002-1.263-.465-1.264-1.043zm-9.089.024c0-.577.564-1.047 1.261-1.049.697-.002 1.263.465 1.264 1.043 0 .578-.563 1.047-1.26 1.05-.698.001-1.264-.466-1.265-1.044zm-9.089.025c0-.578.564-1.048 1.26-1.05.698-.002 1.264.465 1.265 1.043.001.578-.564 1.047-1.261 1.05-.697.001-1.263-.466-1.264-1.043zm-9.09.024c0-.578.565-1.048 1.262-1.05.697-.001 1.263.465 1.264 1.043 0 .578-.563 1.048-1.26 1.05-.698.001-1.264-.465-1.265-1.043zm-9.089.024c0-.578.564-1.048 1.262-1.05.697-.001 1.263.465 1.264 1.043 0 .578-.564 1.048-1.261 1.05C.582 9.8.015 9.335.014 8.757zm63.613-7.702c-.001-.577.564-1.047 1.26-1.049.698-.002 1.264.465 1.265 1.043.001.578-.564 1.047-1.261 1.05-.697 0-1.263-.466-1.264-1.044zm-9.089.025c0-.578.564-1.048 1.26-1.05.698-.002 1.264.465 1.265 1.043 0 .578-.564 1.047-1.26 1.05-.698.001-1.264-.466-1.265-1.043zm-9.09.024c0-.578.564-1.048 1.261-1.05.698-.002 1.263.465 1.264 1.043.001.578-.563 1.048-1.26 1.05-.697.001-1.263-.465-1.264-1.043zm-9.089.024c0-.578.564-1.048 1.261-1.05.697-.001 1.263.465 1.264 1.043 0 .578-.563 1.048-1.26 1.05-.698.001-1.264-.465-1.265-1.043zm-9.089.024c0-.578.563-1.047 1.26-1.05.698-.001 1.264.465 1.265 1.043 0 .578-.564 1.048-1.26 1.05-.698.002-1.264-.465-1.265-1.043zm-9.09.024c0-.578.565-1.047 1.261-1.05.698-.001 1.264.466 1.265 1.043 0 .578-.564 1.048-1.261 1.05-.697.002-1.263-.465-1.264-1.043zM9.092 1.2c0-.578.564-1.047 1.262-1.049.697-.002 1.263.465 1.264 1.043 0 .577-.564 1.047-1.261 1.049-.697.002-1.264-.465-1.265-1.043zm-9.09.024C.002.647.567.177 1.264.175 1.96.173 2.526.64 2.527 1.218c.001.578-.563 1.047-1.26 1.05-.698 0-1.264-.467-1.265-1.045z" fill="#FFCA05"/><path d="M66.239 53.796c-.001-.565-.555-1.021-1.237-1.02-.68.002-1.232.461-1.232 1.026.001.565.555 1.022 1.236 1.02.681-.002 1.234-.461 1.233-1.026zm-.012-7.568a1.23 1.23 0 00-1.237-1.224 1.232 1.232 0 00-1.231 1.23 1.23 1.23 0 001.235 1.225 1.233 1.233 0 001.233-1.231zm-.012-7.568c-.001-.565-.555-1.021-1.236-1.02-.681.003-1.233.462-1.233 1.027.001.565.555 1.021 1.236 1.02.681-.003 1.234-.462 1.233-1.027zm-.012-7.363c0-.565-.554-1.021-1.236-1.02-.68.002-1.233.461-1.232 1.026 0 .565.555 1.022 1.235 1.02.682-.002 1.234-.462 1.233-1.026zm-.013-7.772c0-.565-.554-1.022-1.235-1.02-.681.002-1.233.462-1.233 1.027.001.564.555 1.02 1.236 1.019.681-.002 1.234-.461 1.233-1.026zm-.01-7.365c-.002-.563-.555-1.02-1.237-1.018-.68.002-1.233.461-1.232 1.025 0 .565.555 1.022 1.235 1.02.682-.002 1.234-.462 1.233-1.026zm-.013-7.771c-.001-.565-.555-1.022-1.237-1.02-.68.002-1.233.461-1.232 1.026.001.565.555 1.022 1.236 1.02.681-.002 1.234-.461 1.233-1.026zm-.012-7.363c0-.565-.554-1.022-1.236-1.02-.68.002-1.233.461-1.232 1.026.001.565.555 1.021 1.236 1.02.681-.002 1.233-.461 1.232-1.026zM57.352 53.82c0-.565-.554-1.022-1.235-1.02-.682.002-1.234.461-1.233 1.026.001.565.554 1.022 1.236 1.02.682-.002 1.233-.461 1.233-1.026zm-.012-7.568a1.229 1.229 0 00-1.236-1.224 1.232 1.232 0 00-1.232 1.23 1.229 1.229 0 001.236 1.224 1.232 1.232 0 001.233-1.23zm-.011-7.568c-.001-.565-.554-1.021-1.236-1.02-.682.002-1.234.462-1.233 1.027.001.565.554 1.02 1.236 1.02.682-.003 1.234-.462 1.233-1.027zm-.012-7.364c0-.564-.554-1.02-1.236-1.019-.681.002-1.233.461-1.232 1.026 0 .565.554 1.022 1.236 1.02.681-.002 1.233-.462 1.232-1.027zm-.012-7.771c-.001-.565-.554-1.022-1.236-1.02-.682.002-1.233.462-1.233 1.026.002.565.555 1.021 1.236 1.02.682-.002 1.234-.461 1.233-1.026zm-.012-7.364c0-.564-.554-1.021-1.236-1.02-.681.002-1.233.462-1.232 1.026 0 .565.554 1.022 1.236 1.02.681-.002 1.233-.461 1.232-1.026zm-.012-7.772c-.001-.565-.554-1.022-1.236-1.02-.682.002-1.233.461-1.232 1.026 0 .565.554 1.021 1.235 1.02.682-.002 1.234-.461 1.233-1.026zM57.27 1.05C57.267.483 56.714.027 56.032.03c-.681.002-1.233.46-1.232 1.026 0 .565.554 1.021 1.236 1.02.681-.002 1.233-.462 1.232-1.027zm-9.298 52.795c0-.565-.554-1.021-1.235-1.02-.682.002-1.234.461-1.233 1.026.001.565.554 1.022 1.236 1.02.682-.002 1.233-.461 1.232-1.026zm-.012-7.568a1.229 1.229 0 00-1.236-1.224 1.232 1.232 0 00-1.232 1.23 1.229 1.229 0 001.236 1.225 1.232 1.232 0 001.232-1.23zm-.011-7.567c-.002-.566-.555-1.022-1.236-1.02-.682.002-1.234.461-1.233 1.026.001.565.554 1.021 1.236 1.02.682-.002 1.233-.461 1.233-1.026zm-.012-7.364c-.001-.565-.554-1.021-1.236-1.02-.682.002-1.233.461-1.233 1.026.001.565.554 1.022 1.236 1.02.682-.002 1.234-.462 1.233-1.026zm-.012-7.772c-.001-.565-.554-1.022-1.236-1.02-.682.002-1.234.462-1.233 1.027.001.564.554 1.02 1.236 1.019.682-.002 1.233-.461 1.233-1.026zm-.012-7.364c-.001-.564-.554-1.02-1.236-1.02-.682.003-1.233.462-1.232 1.027 0 .564.554 1.021 1.235 1.02.682-.002 1.234-.462 1.233-1.027zM47.9 8.438c0-.565-.553-1.021-1.235-1.02-.682.002-1.234.461-1.233 1.026.001.565.554 1.022 1.236 1.02.682-.002 1.233-.461 1.233-1.026zm-.011-7.363C47.888.51 47.335.053 46.653.055c-.682.002-1.233.461-1.232 1.026 0 .565.554 1.021 1.235 1.02.682-.002 1.234-.461 1.233-1.026zm-8.803 52.794c0-.565-.554-1.021-1.236-1.02-.681.002-1.233.462-1.232 1.027 0 .565.554 1.02 1.236 1.019.681-.002 1.233-.461 1.232-1.026zm-.012-7.568a1.229 1.229 0 00-1.236-1.224 1.232 1.232 0 00-1.232 1.23 1.229 1.229 0 001.236 1.225 1.232 1.232 0 001.232-1.23zm-.011-7.567c-.002-.565-.555-1.022-1.236-1.02-.682.002-1.234.461-1.233 1.026.001.565.554 1.021 1.236 1.02.682-.002 1.233-.462 1.233-1.026zm-.013-7.364c0-.565-.553-1.021-1.235-1.02-.682.002-1.233.461-1.232 1.026 0 .565.553 1.022 1.235 1.02.682-.002 1.234-.462 1.233-1.026zm-.012-7.772c0-.565-.554-1.022-1.235-1.02-.682.002-1.234.462-1.233 1.027.001.564.554 1.02 1.236 1.019.682-.002 1.233-.461 1.232-1.026zm-.023-15.136c-.001-.565-.554-1.021-1.236-1.02-.682.002-1.234.461-1.233 1.026.001.565.554 1.022 1.236 1.02.682-.002 1.234-.461 1.233-1.026zm-.012-7.363c-.001-.565-.554-1.022-1.236-1.02-.682.002-1.233.461-1.232 1.026 0 .565.554 1.021 1.235 1.02.682-.002 1.234-.461 1.233-1.026zm-9.297 52.795c0-.565-.554-1.021-1.236-1.02-.682.002-1.233.462-1.232 1.027 0 .565.554 1.021 1.236 1.02.681-.003 1.233-.462 1.232-1.027zm-.012-7.567a1.23 1.23 0 00-1.236-1.224 1.232 1.232 0 00-1.232 1.23 1.229 1.229 0 001.236 1.224 1.232 1.232 0 001.232-1.23zm-.012-7.568c0-.565-.554-1.021-1.235-1.02-.682.002-1.234.461-1.233 1.026.001.565.554 1.022 1.236 1.02.682-.002 1.233-.461 1.232-1.026zm-.012-7.364c0-.565-.553-1.021-1.235-1.02-.682.003-1.234.462-1.233 1.026.001.565.554 1.022 1.236 1.02.682-.002 1.234-.461 1.233-1.026zm-.012-7.772c0-.564-.554-1.021-1.235-1.02-.682.002-1.234.462-1.233 1.027.001.565.554 1.02 1.236 1.02.682-.003 1.233-.462 1.232-1.027zm-.011-7.363c-.001-.565-.554-1.022-1.236-1.02-.682.002-1.234.462-1.233 1.026.001.565.555 1.022 1.236 1.02.682-.002 1.234-.462 1.233-1.027zm-.013-7.773c0-.565-.554-1.021-1.235-1.02-.682.002-1.234.462-1.233 1.027.001.565.554 1.02 1.236 1.02.682-.003 1.233-.462 1.232-1.027zm-.011-7.363c-.001-.565-.554-1.021-1.236-1.02-.682.002-1.233.462-1.233 1.026.001.565.555 1.022 1.236 1.02.682-.002 1.234-.461 1.233-1.026zM20.82 53.918c-.001-.565-.555-1.021-1.237-1.02-.68.003-1.233.462-1.232 1.027.001.565.555 1.021 1.236 1.02.681-.003 1.233-.462 1.233-1.027zm-.012-7.568a1.23 1.23 0 00-1.237-1.223 1.232 1.232 0 00-1.232 1.23 1.23 1.23 0 001.236 1.224 1.233 1.233 0 001.233-1.23zm-.012-7.567c-.001-.565-.555-1.022-1.237-1.02-.68.002-1.233.461-1.232 1.026.001.565.555 1.022 1.236 1.02.681-.002 1.234-.461 1.233-1.026zm-.012-7.364c0-.565-.554-1.02-1.236-1.02-.68.003-1.233.462-1.232 1.027 0 .564.555 1.021 1.235 1.02.682-.002 1.234-.462 1.233-1.027zm-.012-7.772c-.001-.564-.555-1.021-1.236-1.02-.681.002-1.234.462-1.233 1.027.001.565.555 1.02 1.236 1.019.681-.002 1.234-.46 1.233-1.026zm-.012-7.364c0-.564-.554-1.02-1.236-1.019-.68.002-1.233.462-1.232 1.026 0 .565.555 1.021 1.235 1.02.682-.002 1.234-.462 1.233-1.027zm-.012-7.772c0-.565-.555-1.021-1.236-1.02-.681.002-1.233.462-1.232 1.027 0 .565.554 1.021 1.235 1.02.682-.003 1.234-.462 1.233-1.027zm-.012-7.363c0-.565-.554-1.021-1.236-1.02-.68.002-1.233.461-1.232 1.026 0 .565.555 1.022 1.235 1.02.682-.002 1.234-.461 1.233-1.026zm-8.803 52.794c0-.565-.664-1.02-1.482-1.019-.818.003-1.48.462-1.48 1.027.001.565.666 1.021 1.483 1.019.818-.002 1.48-.462 1.48-1.027zm-.012-7.568c0-.678-.664-1.225-1.482-1.223-.818.002-1.48.553-1.48 1.231.002.678.666 1.226 1.484 1.224.818-.003 1.48-.553 1.478-1.232zm-.011-7.567c-.002-.565-.665-1.021-1.483-1.02-.818.003-1.48.463-1.48 1.028.001.565.666 1.02 1.484 1.018.817-.002 1.48-.461 1.478-1.026zm-.012-7.364c-.001-.565-.664-1.02-1.482-1.018-.818.002-1.481.461-1.48 1.026 0 .565.665 1.021 1.483 1.02.818-.003 1.48-.463 1.479-1.028zm-.012-7.772c-.002-.564-.665-1.02-1.483-1.019-.818.002-1.48.462-1.48 1.027.001.565.666 1.02 1.484 1.019.818-.002 1.48-.462 1.479-1.027zm-.012-7.364c0-.564-.664-1.02-1.482-1.018-.818.002-1.48.462-1.48 1.026 0 .565.665 1.021 1.483 1.02.818-.003 1.48-.463 1.479-1.028zm-.013-7.772c0-.565-.664-1.02-1.482-1.019-.818.002-1.48.462-1.48 1.027.001.565.666 1.02 1.484 1.019.818-.002 1.48-.462 1.479-1.027zm-.011-7.363c0-.565-.664-1.021-1.482-1.019-.818.002-1.48.462-1.48 1.027.001.565.665 1.02 1.483 1.019.818-.003 1.48-.462 1.48-1.027zM2.553 53.968c0-.565-.553-1.022-1.235-1.02-.682.002-1.234.461-1.233 1.026.001.565.555 1.021 1.236 1.02.682-.002 1.233-.462 1.232-1.026zM2.541 46.4a1.229 1.229 0 00-1.235-1.224 1.232 1.232 0 00-1.233 1.23A1.23 1.23 0 001.31 47.63a1.232 1.232 0 001.23-1.23zm-.011-7.568c-.001-.565-.554-1.021-1.236-1.02-.681.002-1.234.462-1.233 1.027.001.565.555 1.02 1.236 1.02.682-.003 1.233-.462 1.233-1.027zm-.012-7.364c-.001-.565-.554-1.02-1.236-1.019-.681.002-1.233.461-1.232 1.026 0 .565.554 1.021 1.236 1.02.681-.002 1.233-.462 1.232-1.027zm-.012-7.771c-.001-.565-.554-1.022-1.236-1.02-.681.002-1.234.461-1.233 1.026.001.565.555 1.021 1.236 1.02.682-.002 1.234-.462 1.233-1.026zm-.012-7.364c-.001-.565-.554-1.021-1.236-1.02-.681.002-1.233.462-1.232 1.026 0 .565.554 1.022 1.236 1.02.681-.002 1.233-.462 1.232-1.026zM2.482 8.56c-.001-.565-.554-1.02-1.236-1.019-.681.002-1.234.461-1.233 1.026.001.565.555 1.021 1.237 1.02.681-.002 1.233-.462 1.232-1.027zM2.47 1.197C2.469.632 1.916.176 1.234.177.553.18.001.64.002 1.205c0 .565.554 1.021 1.236 1.02.681-.003 1.233-.462 1.232-1.027z" fill="#FFCA05"/></svg>