<svg width="67" height="55" viewBox="0 0 67 55" fill="none" xmlns="http://www.w3.org/2000/svg">
<path d="M63.7136 53.7821C63.7126 53.2042 64.2776 52.7345 64.9741 52.7327C65.6714 52.7308 66.2379 53.1975 66.2388 53.7753C66.2398 54.3532 65.6748 54.8229 64.9775 54.8247C64.281 54.8266 63.7145 54.3599 63.7136 53.7821ZM54.625 53.8062C54.624 53.2284 55.1882 52.7587 55.8855 52.7568C56.5828 52.755 57.1485 53.2217 57.1494 53.7995C57.1504 54.3773 56.5862 54.847 55.8889 54.8489C55.1916 54.8507 54.6259 54.384 54.625 53.8062ZM45.5356 53.8304C45.5346 53.2525 46.0988 52.7828 46.7961 52.781C47.4934 52.7791 48.0591 53.2458 48.06 53.8236C48.061 54.4015 47.4968 54.8712 46.7995 54.873C46.1022 54.8749 45.5365 54.4082 45.5356 53.8304ZM36.4462 53.8545C36.4452 53.2767 37.0094 52.807 37.7067 52.8051C38.404 52.8033 38.9697 53.27 38.9706 53.8478C38.9716 54.4256 38.4074 54.8953 37.7101 54.8972C37.0129 54.899 36.4471 54.4324 36.4462 53.8545ZM27.3568 53.8787C27.3559 53.3008 27.92 52.8311 28.6173 52.8293C29.3146 52.8274 29.8803 53.2941 29.8813 53.872C29.8822 54.4498 29.318 54.9195 28.6207 54.9213C27.9235 54.9232 27.3578 54.4565 27.3568 53.8787ZM18.2674 53.9028C18.2665 53.325 18.8314 52.8553 19.5279 52.8534C20.2252 52.8516 20.7917 53.3183 20.7926 53.8961C20.7936 54.4739 20.2286 54.9436 19.5314 54.9455C18.8349 54.9473 18.2684 54.4807 18.2674 53.9028ZM9.17803 53.927C9.17708 53.3491 9.74202 52.8794 10.4393 52.8776C11.1366 52.8757 11.7023 53.3424 11.7032 53.9203C11.7042 54.4981 11.14 54.9678 10.4427 54.9696C9.74546 54.9715 9.17898 54.5048 9.17803 53.927ZM0.0886384 53.9511C0.0876882 53.3733 0.652635 52.9036 1.34991 52.9017C2.04719 52.8999 2.61291 53.3666 2.61386 53.9444C2.61481 54.5222 2.05063 54.9919 1.35335 54.9938C0.656075 54.9956 0.0895885 54.529 0.0886384 53.9511ZM63.7012 46.2496C63.7003 45.6717 64.2652 45.2021 64.9617 45.2002C65.659 45.1984 66.2255 45.665 66.2264 46.2429C66.2274 46.8207 65.6624 47.2904 64.9651 47.2922C64.2686 47.2941 63.7022 46.8274 63.7012 46.2496ZM54.6126 46.2737C54.6116 45.6959 55.1758 45.2262 55.8731 45.2244C56.5704 45.2225 57.1361 45.6892 57.137 46.267C57.138 46.8449 56.5738 47.3145 55.8765 47.3164C55.1793 47.3183 54.6135 46.8516 54.6126 46.2737ZM45.5232 46.2979C45.5223 45.72 46.0864 45.2504 46.7837 45.2485C47.481 45.2467 48.0467 45.7133 48.0476 46.2912C48.0486 46.869 47.4844 47.3387 46.7871 47.3405C46.0899 47.3424 45.5242 46.8757 45.5232 46.2979ZM36.4338 46.322C36.4329 45.7442 36.997 45.2745 37.6943 45.2727C38.3916 45.2708 38.9573 45.7375 38.9583 46.3153C38.9592 46.8932 38.395 47.3628 37.6978 47.3647C37.0005 47.3666 36.4348 46.8999 36.4338 46.322ZM27.3444 46.3462C27.3435 45.7684 27.9076 45.2987 28.6049 45.2968C29.3022 45.295 29.8679 45.7616 29.8689 46.3395C29.8698 46.9173 29.3056 47.387 28.6084 47.3889C27.9111 47.3907 27.3454 46.924 27.3444 46.3462ZM18.255 46.3703C18.2541 45.7925 18.819 45.3228 19.5155 45.321C20.2128 45.3191 20.7793 45.7858 20.7802 46.3636C20.7812 46.9415 20.2163 47.4112 19.519 47.413C18.8225 47.4149 18.256 46.9482 18.255 46.3703ZM9.16564 46.3945C9.16469 45.8167 9.72964 45.347 10.4269 45.3451C11.1242 45.3433 11.6899 45.8099 11.6909 46.3878C11.6918 46.9656 11.1276 47.4353 10.4304 47.4372C9.73308 47.439 9.16659 46.9723 9.16564 46.3945ZM0.0762527 46.4186C0.0753025 45.8408 0.64025 45.3711 1.33753 45.3693C2.03481 45.3674 2.60052 45.8341 2.60147 46.4119C2.60242 46.9898 2.03825 47.4595 1.34097 47.4613C0.643689 47.4632 0.0772028 46.9965 0.0762527 46.4186ZM63.6888 38.7171C63.6879 38.1393 64.2528 37.6696 64.9493 37.6677C65.6466 37.6659 66.2131 38.1326 66.214 38.7104C66.215 39.2882 65.65 39.7579 64.9528 39.7598C64.2563 39.7616 63.6898 39.295 63.6888 38.7171ZM54.6002 38.7413C54.5993 38.1634 55.1634 37.6937 55.8607 37.6919C56.558 37.69 57.1237 38.1567 57.1246 38.7346C57.1256 39.3124 56.5614 39.7821 55.8641 39.7839C55.1669 39.7858 54.6012 39.3191 54.6002 38.7413ZM45.5108 38.7654C45.5099 38.1876 46.074 37.7179 46.7713 37.716C47.4686 37.7142 48.0343 38.1809 48.0353 38.7587C48.0362 39.3366 47.472 39.8062 46.7748 39.8081C46.0775 39.8099 45.5118 39.3433 45.5108 38.7654ZM36.4214 38.7896C36.4205 38.2117 36.9846 37.7421 37.6819 37.7402C38.3792 37.7383 38.9449 38.205 38.9459 38.7829C38.9468 39.3607 38.3826 39.8304 37.6854 39.8322C36.9881 39.8341 36.4224 39.3674 36.4214 38.7896ZM27.332 38.8137C27.3311 38.2359 27.8953 37.7662 28.5925 37.7644C29.2898 37.7625 29.8555 38.2292 29.8565 38.807C29.8574 39.3849 29.2933 39.8545 28.596 39.8564C27.8987 39.8582 27.333 39.3916 27.332 38.8137ZM18.2426 38.8379C18.2417 38.26 18.8066 37.7904 19.5031 37.7885C20.2004 37.7867 20.7669 38.2533 20.7679 38.8312C20.7688 39.409 20.2039 39.8787 19.5066 39.8805C18.8101 39.8824 18.2436 39.4157 18.2426 38.8379ZM9.15326 38.862C9.15231 38.2842 9.71725 37.8145 10.4145 37.8127C11.1118 37.8108 11.6775 38.2775 11.6785 38.8553C11.6794 39.4332 11.1153 39.9028 10.418 39.9047C9.72069 39.9065 9.15421 39.4399 9.15326 38.862ZM0.063867 38.8862C0.0629168 38.3083 0.627864 37.8387 1.32514 37.8368C2.02242 37.835 2.58813 38.3016 2.58908 38.8795C2.59003 39.4573 2.02586 39.927 1.32858 39.9288C0.631304 39.9307 0.0648171 39.464 0.063867 38.8862ZM63.6764 31.1846C63.6755 30.6068 64.2404 30.1371 64.9369 30.1353C65.6342 30.1334 66.2007 30.6001 66.2017 31.1779C66.2026 31.7558 65.6377 32.2261 64.9404 32.228C64.2439 32.2298 63.6774 31.7625 63.6764 31.1846ZM54.5878 31.2088C54.5869 30.631 55.151 30.1613 55.8483 30.1594C56.5456 30.1576 57.1113 30.6242 57.1123 31.2021C57.1132 31.7799 56.549 32.2502 55.8518 32.2521C55.1545 32.254 54.5888 31.7866 54.5878 31.2088ZM45.4984 31.2329C45.4975 30.6551 46.0617 30.1854 46.7589 30.1836C47.4562 30.1817 48.0219 30.6484 48.0229 31.2262C48.0238 31.8041 47.4597 32.2744 46.7624 32.2763C46.0651 32.2781 45.4994 31.8108 45.4984 31.2329ZM36.409 31.2571C36.4081 30.6793 36.9723 30.2096 37.6695 30.2077C38.3668 30.2059 38.9325 30.6726 38.9335 31.2504C38.9344 31.8282 38.3703 32.2986 37.673 32.3004C36.9757 32.3023 36.41 31.8349 36.409 31.2571ZM27.3197 31.2813C27.3187 30.7034 27.8829 30.2337 28.5802 30.2319C29.2774 30.23 29.8431 30.6967 29.8441 31.2745C29.845 31.8524 29.2809 32.3227 28.5836 32.3246C27.8863 32.3264 27.3206 31.8591 27.3197 31.2813ZM18.2303 31.3054C18.2293 30.7276 18.7943 30.2579 19.4908 30.256C20.188 30.2542 20.7545 30.7209 20.7555 31.2987C20.7564 31.8765 20.1915 32.3469 19.4942 32.3487C18.7977 32.3506 18.2312 31.8832 18.2303 31.3054ZM9.14087 31.3296C9.13992 30.7517 9.70487 30.282 10.4021 30.2802C11.0994 30.2783 11.6651 30.745 11.6661 31.3228C11.667 31.9007 11.1029 32.371 10.4056 32.3729C9.70831 32.3747 9.14182 31.9074 9.14087 31.3296ZM0.0514812 31.3537C0.0505311 30.7759 0.615478 30.3062 1.31276 30.3043C2.01004 30.3025 2.57575 30.7692 2.5767 31.347C2.57765 31.9248 2.01348 32.3952 1.3162 32.397C0.618919 32.3989 0.0524314 31.9316 0.0514812 31.3537ZM63.6641 23.6528C63.6631 23.075 64.228 22.6047 64.9246 22.6028C65.6218 22.601 66.1883 23.0683 66.1893 23.6461C66.1902 24.224 65.6253 24.6936 64.928 24.6955C64.2315 24.6973 63.665 24.2307 63.6641 23.6528ZM54.5754 23.677C54.5745 23.0991 55.1387 22.6288 55.8359 22.627C56.5332 22.6251 57.0989 23.0924 57.0999 23.6703C57.1008 24.2481 56.5367 24.7178 55.8394 24.7196C55.1421 24.7215 54.5764 24.2548 54.5754 23.677ZM45.486 23.7011C45.4851 23.1233 46.0493 22.653 46.7465 22.6511C47.4438 22.6493 48.0095 23.1166 48.0105 23.6944C48.0114 24.2723 47.4473 24.7419 46.75 24.7438C46.0527 24.7456 45.487 24.279 45.486 23.7011ZM36.3967 23.7253C36.3957 23.1474 36.9599 22.6771 37.6572 22.6753C38.3544 22.6734 38.9201 23.1407 38.9211 23.7186C38.922 24.2964 38.3579 24.7661 37.6606 24.7679C36.9633 24.7698 36.3976 24.3031 36.3967 23.7253ZM27.3073 23.7494C27.3063 23.1716 27.8705 22.7013 28.5678 22.6994C29.265 22.6976 29.8308 23.1649 29.8317 23.7427C29.8327 24.3206 29.2685 24.7902 28.5712 24.7921C27.8739 24.7939 27.3082 24.3273 27.3073 23.7494ZM18.2179 23.7736C18.2169 23.1957 18.7819 22.7254 19.4784 22.7236C20.1757 22.7217 20.7421 23.189 20.7431 23.7669C20.744 24.3447 20.1791 24.8144 19.4818 24.8162C18.7853 24.8181 18.2188 24.3514 18.2179 23.7736ZM9.12849 23.7977C9.12754 23.2199 9.69248 22.7496 10.3898 22.7477C11.087 22.7459 11.6528 23.2132 11.6537 23.791C11.6547 24.3689 11.0905 24.8385 10.3932 24.8404C9.69592 24.8422 9.12944 24.3756 9.12849 23.7977ZM0.0390966 23.8219C0.0381464 23.244 0.603092 22.7737 1.30037 22.7719C1.99765 22.77 2.56336 23.2373 2.56431 23.8152C2.56526 24.393 2.00109 24.8627 1.30381 24.8645C0.606533 24.8664 0.0400467 24.3997 0.0390966 23.8219ZM63.6517 16.1197C63.6507 15.5425 64.2157 15.0722 64.9122 15.0703C65.6094 15.0685 66.1759 15.5358 66.1769 16.113C66.1778 16.6908 65.6129 17.1612 64.9156 17.163C64.2191 17.1649 63.6526 16.6976 63.6517 16.1197ZM54.563 16.1439C54.5621 15.5667 55.1263 15.0963 55.8235 15.0945C56.5208 15.0926 57.0865 15.56 57.0875 16.1372C57.0884 16.715 56.5243 17.1853 55.827 17.1872C55.1297 17.189 54.564 16.7217 54.563 16.1439ZM45.4737 16.168C45.4727 15.5908 46.0369 15.1205 46.7342 15.1186C47.4314 15.1168 47.9972 15.5841 47.9981 16.1613C47.9991 16.7391 47.4349 17.2095 46.7376 17.2113C46.0403 17.2132 45.4746 16.7459 45.4737 16.168ZM36.3843 16.1922C36.3833 15.615 36.9475 15.1446 37.6448 15.1428C38.342 15.1409 38.9078 15.6083 38.9087 16.1855C38.9097 16.7633 38.3455 17.2336 37.6482 17.2355C36.9509 17.2373 36.3852 16.77 36.3843 16.1922ZM27.2949 16.2163C27.2939 15.6391 27.8581 15.1688 28.5554 15.1669C29.2527 15.1651 29.8184 15.6324 29.8193 16.2096C29.8203 16.7874 29.2561 17.2578 28.5588 17.2596C27.8615 17.2615 27.2958 16.7942 27.2949 16.2163ZM18.2055 16.2405C18.2045 15.6633 18.7695 15.1929 19.466 15.1911C20.1633 15.1892 20.7298 15.6566 20.7307 16.2338C20.7317 16.8116 20.1667 17.2819 19.4694 17.2838C18.7729 17.2856 18.2064 16.8183 18.2055 16.2405ZM9.1161 16.2646C9.11515 15.6874 9.6801 15.2171 10.3774 15.2152C11.0747 15.2134 11.6404 15.6807 11.6413 16.2579C11.6423 16.8358 11.0781 17.3061 10.3808 17.3079C9.68354 17.3098 9.11705 16.8425 9.1161 16.2646ZM0.0267098 16.2888C0.0257607 15.7116 0.590707 15.2413 1.28799 15.2394C1.98526 15.2375 2.55098 15.7049 2.55193 16.2821C2.55288 16.8599 1.98871 17.3302 1.29143 17.3321C0.594148 17.3339 0.02766 16.8666 0.0267098 16.2888ZM63.6393 8.58788C63.6383 8.01004 64.2033 7.54036 64.8998 7.53851C65.5971 7.53666 66.1635 8.00333 66.1645 8.58117C66.1654 9.15901 65.6005 9.62869 64.9032 9.63054C64.2067 9.63239 63.6402 9.16572 63.6393 8.58788ZM54.5507 8.61203C54.5497 8.03419 55.1139 7.56451 55.8112 7.56266C56.5084 7.56081 57.0742 8.02748 57.0751 8.60532C57.0761 9.18317 56.5119 9.65284 55.8146 9.65469C55.1173 9.65655 54.5516 9.18987 54.5507 8.61203ZM45.4613 8.63618C45.4603 8.05834 46.0245 7.58867 46.7218 7.58681C47.4191 7.58496 47.9848 8.05163 47.9857 8.62948C47.9867 9.20732 47.4225 9.67699 46.7252 9.67884C46.0279 9.6807 45.4622 9.21403 45.4613 8.63618ZM36.3719 8.66034C36.3709 8.08249 36.9351 7.61282 37.6324 7.61097C38.3297 7.60911 38.8954 8.07579 38.8963 8.65363C38.8973 9.23147 38.3331 9.70114 37.6358 9.703C36.9385 9.70485 36.3728 9.23818 36.3719 8.66034ZM27.2825 8.68449C27.2815 8.10665 27.8457 7.63697 28.543 7.63512C29.2403 7.63326 29.806 8.09994 29.8069 8.67778C29.8079 9.25562 29.2437 9.7253 28.5464 9.72715C27.8492 9.729 27.2834 9.26233 27.2825 8.68449ZM18.1931 8.70864C18.1922 8.1308 18.7571 7.66112 19.4536 7.65927C20.1509 7.65742 20.7174 8.12409 20.7183 8.70193C20.7193 9.27977 20.1543 9.74945 19.457 9.7513C18.7605 9.75315 18.1941 9.28648 18.1931 8.70864ZM9.10371 8.73279C9.10276 8.15495 9.66771 7.68527 10.365 7.68342C11.0623 7.68157 11.628 8.14824 11.6289 8.72608C11.6299 9.30392 11.0657 9.7736 10.3684 9.77545C9.67115 9.7773 9.10466 9.31063 9.10371 8.73279ZM0.0143252 8.75694C0.013375 8.1791 0.578322 7.70942 1.2756 7.70757C1.97288 7.70572 2.53859 8.17239 2.53954 8.75023C2.54049 9.32808 1.97632 9.79775 1.27904 9.7996C0.581762 9.80146 0.0152753 9.33479 0.0143252 8.75694ZM63.6269 1.05541C63.6259 0.477569 64.1909 0.0078923 64.8874 0.00604156C65.5847 0.00418876 66.1512 0.470859 66.1521 1.0487C66.1531 1.62654 65.5881 2.09622 64.8908 2.09807C64.1943 2.09992 63.6278 1.63325 63.6269 1.05541ZM54.5383 1.07956C54.5373 0.50172 55.1015 0.0320445 55.7988 0.0301917C56.4961 0.0283389 57.0618 0.495012 57.0627 1.07285C57.0637 1.6507 56.4995 2.12037 55.8022 2.12222C55.1049 2.12408 54.5392 1.6574 54.5383 1.07956ZM45.4489 1.10371C45.4479 0.525872 46.0121 0.0561967 46.7094 0.0543439C47.4067 0.0524911 47.9724 0.519164 47.9733 1.09701C47.9743 1.67485 47.4101 2.14452 46.7128 2.14638C46.0156 2.14823 45.4498 1.68156 45.4489 1.10371ZM36.3595 1.12787C36.3585 0.550024 36.9227 0.0803489 37.62 0.0784961C38.3173 0.0766433 38.883 0.543316 38.8839 1.12116C38.8849 1.699 38.3207 2.16868 37.6234 2.17053C36.9262 2.17238 36.3604 1.70571 36.3595 1.12787ZM27.2701 1.15202C27.2692 0.574176 27.8333 0.104501 28.5306 0.102648C29.2279 0.100795 29.7936 0.567468 29.7946 1.14531C29.7955 1.72315 29.2313 2.19283 28.5341 2.19468C27.8368 2.19653 27.2711 1.72986 27.2701 1.15202ZM18.1807 1.17617C18.1798 0.598328 18.7447 0.128651 19.4412 0.1268C20.1385 0.124948 20.705 0.591618 20.7059 1.16946C20.7069 1.7473 20.1419 2.21698 19.4447 2.21883C18.7482 2.22068 18.1817 1.75401 18.1807 1.17617ZM9.09133 1.20032C9.09038 0.622481 9.65533 0.152803 10.3526 0.150951C11.0499 0.149098 11.6156 0.615771 11.6165 1.19361C11.6175 1.77145 11.0533 2.24113 10.356 2.24298C9.65877 2.24484 9.09228 1.77816 9.09133 1.20032ZM0.00193948 1.22447C0.000989329 0.646633 0.565936 0.176956 1.26322 0.175103C1.96049 0.17325 2.52621 0.639923 2.52716 1.21776C2.52811 1.79561 1.96393 2.26528 1.26666 2.26713C0.569376 2.26899 0.00288963 1.80232 0.00193948 1.22447Z" fill="#FFCA05"/>
<path d="M66.2387 53.7958C66.2378 53.2308 65.6841 52.7746 65.0025 52.7764C64.3217 52.7782 63.7695 53.2375 63.7704 53.8025C63.7712 54.3674 64.3249 54.8237 65.0057 54.8219C65.6873 54.82 66.2396 54.3608 66.2387 53.7958Z" fill="#FFCA05"/>
<path d="M66.2268 46.228C66.2257 45.55 65.6719 45.0022 64.9903 45.0041C64.3095 45.0059 63.7574 45.5567 63.7585 46.2347C63.7596 46.9126 64.3134 47.4604 64.9942 47.4586C65.6758 47.4568 66.2279 46.906 66.2268 46.228Z" fill="#FFCA05"/>
<path d="M66.2147 38.6602C66.2139 38.0952 65.6602 37.6389 64.9786 37.6408C64.2978 37.6426 63.7455 38.1019 63.7464 38.6668C63.7473 39.2318 64.301 39.6881 64.9818 39.6863C65.6634 39.6844 66.2156 39.2252 66.2147 38.6602Z" fill="#FFCA05"/>
<path d="M66.2033 31.2965C66.2024 30.7317 65.6487 30.2755 64.9671 30.2774C64.2863 30.2792 63.7341 30.7383 63.7349 31.3031C63.7358 31.8679 64.2895 32.3247 64.9703 32.3229C65.6519 32.321 66.2042 31.8613 66.2033 31.2965Z" fill="#FFCA05"/>
<path d="M66.1908 23.5249C66.1899 22.9601 65.6362 22.5033 64.9547 22.5052C64.2739 22.507 63.7216 22.9667 63.7225 23.5315C63.7234 24.0964 64.2771 24.5525 64.9579 24.5506C65.6395 24.5488 66.1917 24.0897 66.1908 23.5249Z" fill="#FFCA05"/>
<path d="M66.1793 16.1607C66.1785 15.5965 65.6248 15.1398 64.9432 15.1416C64.2624 15.1435 63.7101 15.6032 63.711 16.1674C63.7119 16.7322 64.2656 17.1889 64.9464 17.1871C65.628 17.1853 66.1802 16.7255 66.1793 16.1607Z" fill="#FFCA05"/>
<path d="M66.1666 8.38858C66.1657 7.8236 65.6121 7.36735 64.9305 7.36921C64.2497 7.37106 63.6974 7.83033 63.6983 8.39531C63.6992 8.96029 64.2528 9.41654 64.9336 9.41468C65.6152 9.41283 66.1675 8.95356 66.1666 8.38858Z" fill="#FFCA05"/>
<path d="M66.1554 1.02554C66.1545 0.460562 65.6008 0.00429961 64.9193 0.00613857C64.2385 0.00797549 63.6863 0.467222 63.6872 1.0322C63.688 1.59719 64.2417 2.05345 64.9225 2.05161C65.6041 2.04977 66.1563 1.59053 66.1554 1.02554Z" fill="#FFCA05"/>
<path d="M57.3525 53.8197C57.3516 53.2548 56.7984 52.7985 56.1167 52.8003C55.4349 52.8021 54.8833 53.2613 54.8842 53.8263C54.8851 54.3913 55.4383 54.8476 56.12 54.8457C56.8018 54.8439 57.3534 54.3847 57.3525 53.8197Z" fill="#FFCA05"/>
<path d="M57.3406 46.2519C57.3395 45.574 56.7863 45.0261 56.1045 45.0279C55.4227 45.0297 54.8713 45.5805 54.8724 46.2585C54.8735 46.9365 55.4268 47.4843 56.1085 47.4825C56.7903 47.4807 57.3418 46.9299 57.3406 46.2519Z" fill="#FFCA05"/>
<path d="M57.3286 38.6841C57.3277 38.1191 56.7745 37.6628 56.0928 37.6647C55.411 37.6665 54.8594 38.1257 54.8603 38.6907C54.8613 39.2557 55.4144 39.7119 56.0961 39.7101C56.7779 39.7083 57.3295 39.2491 57.3286 38.6841Z" fill="#FFCA05"/>
<path d="M57.3171 31.3205C57.3162 30.7557 56.7631 30.2996 56.0813 30.3014C55.3995 30.3032 54.8479 30.7623 54.8488 31.3271C54.8498 31.8919 55.4029 32.3487 56.0847 32.3468C56.7664 32.345 57.318 31.8853 57.3171 31.3205Z" fill="#FFCA05"/>
<path d="M57.3049 23.5488C57.304 22.984 56.7508 22.5272 56.069 22.529C55.3873 22.5308 54.8356 22.9906 54.8365 23.5554C54.8375 24.1202 55.3906 24.5763 56.0724 24.5745C56.7542 24.5727 57.3058 24.1136 57.3049 23.5488Z" fill="#FFCA05"/>
<path d="M57.2932 16.1848C57.2923 15.6206 56.7391 15.1638 56.0574 15.1656C55.3756 15.1674 54.824 15.6271 54.8249 16.1913C54.8258 16.7561 55.379 17.2129 56.0607 17.2111C56.7425 17.2093 57.2941 16.7496 57.2932 16.1848Z" fill="#FFCA05"/>
<path d="M57.281 8.41263C57.28 7.84765 56.7269 7.39136 56.0452 7.39317C55.3634 7.39498 54.8118 7.8542 54.8127 8.41918C54.8136 8.98417 55.3668 9.44046 56.0485 9.43864C56.7303 9.43683 57.2819 8.97761 57.281 8.41263Z" fill="#FFCA05"/>
<path d="M57.2693 1.04935C57.2683 0.484366 56.7152 0.0280782 56.0334 0.0298887C55.3516 0.0316993 54.8 0.490921 54.8009 1.0559C54.8018 1.62088 55.355 2.07717 56.0368 2.07536C56.7185 2.07355 57.2702 1.61433 57.2693 1.04935Z" fill="#FFCA05"/>
<path d="M47.9724 53.8449C47.9715 53.2799 47.4183 52.8236 46.7366 52.8254C46.0548 52.8272 45.5032 53.2865 45.5041 53.8514C45.505 54.4164 46.0582 54.8727 46.7399 54.8709C47.4217 54.8691 47.9733 54.4099 47.9724 53.8449Z" fill="#FFCA05"/>
<path d="M47.9603 46.2772C47.9592 45.5992 47.4059 45.0514 46.7241 45.0532C46.0424 45.055 45.4909 45.6058 45.4921 46.2838C45.4932 46.9617 46.0464 47.5096 46.7282 47.5077C47.4099 47.5059 47.9614 46.9552 47.9603 46.2772Z" fill="#FFCA05"/>
<path d="M47.9485 38.7095C47.9475 38.1445 47.3944 37.6882 46.7126 37.69C46.0309 37.6919 45.4793 38.1511 45.4802 38.7161C45.4811 39.281 46.0342 39.7373 46.716 39.7355C47.3978 39.7337 47.9494 39.2745 47.9485 38.7095Z" fill="#FFCA05"/>
<path d="M47.9367 31.3457C47.9358 30.7809 47.3827 30.3247 46.7009 30.3265C46.0192 30.3283 45.4675 30.7874 45.4685 31.3522C45.4694 31.917 46.0225 32.3738 46.7043 32.372C47.386 32.3702 47.9377 31.9105 47.9367 31.3457Z" fill="#FFCA05"/>
<path d="M47.9245 23.5741C47.9236 23.0093 47.3705 22.5525 46.6887 22.5543C46.007 22.5561 45.4553 23.0158 45.4563 23.5806C45.4572 24.1454 46.0103 24.6016 46.6921 24.5998C47.3738 24.598 47.9255 24.1389 47.9245 23.5741Z" fill="#FFCA05"/>
<path d="M47.9128 16.21C47.9119 15.6459 47.3588 15.1891 46.677 15.1909C45.9952 15.1927 45.4436 15.6524 45.4446 16.2166C45.4455 16.7814 45.9986 17.2382 46.6804 17.2364C47.3621 17.2346 47.9137 16.7749 47.9128 16.21Z" fill="#FFCA05"/>
<path d="M47.9006 8.4379C47.8997 7.87292 47.3466 7.41663 46.6648 7.41844C45.983 7.42025 45.4314 7.87947 45.4323 8.44445C45.4333 9.00943 45.9864 9.46572 46.6682 9.46391C47.3499 9.4621 47.9015 9.00288 47.9006 8.4379Z" fill="#FFCA05"/>
<path d="M47.8889 1.07462C47.888 0.509635 47.3348 0.0533467 46.6531 0.0551572C45.9713 0.0569677 45.4197 0.516189 45.4206 1.08117C45.4216 1.64615 45.9747 2.10244 46.6564 2.10063C47.3382 2.09882 47.8898 1.6396 47.8889 1.07462Z" fill="#FFCA05"/>
<path d="M39.0862 53.8689C39.0852 53.3039 38.5321 52.8477 37.8503 52.8495C37.1686 52.8513 36.617 53.3105 36.6179 53.8755C36.6188 54.4405 37.1719 54.8967 37.8537 54.8949C38.5355 54.8931 39.0871 54.4339 39.0862 53.8689Z" fill="#FFCA05"/>
<path d="M39.0743 46.3012C39.0732 45.6233 38.5199 45.0754 37.8382 45.0773C37.1564 45.0791 36.605 45.6298 36.6061 46.3078C36.6072 46.9858 37.1605 47.5336 37.8422 47.5318C38.5239 47.53 39.0754 46.9792 39.0743 46.3012Z" fill="#FFCA05"/>
<path d="M39.0625 38.7336C39.0615 38.1686 38.5084 37.7123 37.8267 37.7141C37.1449 37.7159 36.5933 38.1751 36.5942 38.7401C36.5952 39.3051 37.1483 39.7614 37.83 39.7596C38.5118 39.7578 39.0634 39.2985 39.0625 38.7336Z" fill="#FFCA05"/>
<path d="M39.0508 31.3697C39.0498 30.8049 38.4967 30.3488 37.8149 30.3506C37.1332 30.3524 36.5816 30.8115 36.5825 31.3763C36.5834 31.9411 37.1365 32.3978 37.8183 32.396C38.5001 32.3942 39.0517 31.9345 39.0508 31.3697Z" fill="#FFCA05"/>
<path d="M39.0383 23.598C39.0374 23.0332 38.4843 22.5764 37.8025 22.5782C37.1208 22.58 36.5691 23.0397 36.5701 23.6046C36.571 24.1694 37.1241 24.6255 37.8059 24.6237C38.4876 24.6219 39.0392 24.1628 39.0383 23.598Z" fill="#FFCA05"/>
<path d="M39.0146 8.46182C39.0137 7.89684 38.4606 7.44055 37.7788 7.44236C37.097 7.44417 36.5454 7.9034 36.5463 8.46838C36.5472 9.03336 37.1004 9.48965 37.7821 9.48784C38.4639 9.48603 39.0155 9.02681 39.0146 8.46182Z" fill="#FFCA05"/>
<path d="M39.0029 1.09866C39.002 0.533682 38.4488 0.0773946 37.7671 0.0792051C37.0853 0.0810155 36.5337 0.540237 36.5346 1.10522C36.5355 1.6702 37.0887 2.12649 37.7704 2.12468C38.4522 2.12287 39.0038 1.66365 39.0029 1.09866Z" fill="#FFCA05"/>
<path d="M29.706 53.8942C29.7051 53.3292 29.152 52.8729 28.4702 52.8747C27.7884 52.8765 27.2368 53.3358 27.2377 53.9008C27.2386 54.4657 27.7918 54.922 28.4735 54.9202C29.1553 54.9184 29.707 54.4592 29.706 53.8942Z" fill="#FFCA05"/>
<path d="M29.6942 46.3265C29.693 45.6485 29.1398 45.1007 28.458 45.1025C27.7762 45.1043 27.2248 45.6551 27.2259 46.3331C27.227 47.011 27.7803 47.5589 28.462 47.5571C29.1438 47.5553 29.6953 47.0045 29.6942 46.3265Z" fill="#FFCA05"/>
<path d="M29.6823 38.7588C29.6814 38.1938 29.1283 37.7376 28.4465 37.7394C27.7647 37.7412 27.2131 38.2004 27.214 38.7654C27.215 39.3304 27.7681 39.7866 28.4499 39.7848C29.1316 39.783 29.6833 39.3238 29.6823 38.7588Z" fill="#FFCA05"/>
<path d="M29.6706 31.395C29.6697 30.8302 29.1166 30.374 28.4348 30.3758C27.7531 30.3776 27.2014 30.8367 27.2024 31.4015C27.2033 31.9663 27.7564 32.4231 28.4382 32.4213C29.1199 32.4195 29.6716 31.9598 29.6706 31.395Z" fill="#FFCA05"/>
<path d="M29.6584 23.6234C29.6575 23.0586 29.1044 22.6018 28.4226 22.6036C27.7408 22.6054 27.1892 23.0651 27.1901 23.6299C27.191 24.1948 27.7442 24.6509 28.4259 24.6491C29.1077 24.6473 29.6593 24.1882 29.6584 23.6234Z" fill="#FFCA05"/>
<path d="M29.6467 16.2594C29.6458 15.6952 29.0926 15.2384 28.4109 15.2402C27.7291 15.242 27.1775 15.7017 27.1784 16.2659C27.1793 16.8307 27.7325 17.2875 28.4142 17.2857C29.096 17.2839 29.6476 16.8242 29.6467 16.2594Z" fill="#FFCA05"/>
<path d="M29.6345 8.48709C29.6336 7.92211 29.0804 7.46582 28.3987 7.46763C27.7169 7.46944 27.1653 7.92866 27.1662 8.49365C27.1671 9.05863 27.7203 9.51492 28.402 9.51311C29.0838 9.5113 29.6354 9.05207 29.6345 8.48709Z" fill="#FFCA05"/>
<path d="M29.6228 1.12393C29.6218 0.55895 29.0687 0.102663 28.387 0.104474C27.7052 0.106284 27.1536 0.565505 27.1545 1.13049C27.1554 1.69547 27.7085 2.15175 28.3903 2.14994C29.0721 2.14813 29.6237 1.68891 29.6228 1.12393Z" fill="#FFCA05"/>
<path d="M20.8196 53.9182C20.8186 53.3533 20.2649 52.897 19.5833 52.8988C18.9025 52.9006 18.3503 53.3598 18.3512 53.9248C18.3522 54.4898 18.9059 54.9461 19.5867 54.9443C20.2683 54.9424 20.8205 54.4832 20.8196 53.9182Z" fill="#FFCA05"/>
<path d="M20.8077 46.3506C20.8066 45.6726 20.2527 45.1248 19.5712 45.1266C18.8904 45.1284 18.3383 45.6791 18.3394 46.3571C18.3406 47.0351 18.8944 47.5829 19.5752 47.5811C20.2567 47.5793 20.8088 47.0285 20.8077 46.3506Z" fill="#FFCA05"/>
<path d="M20.7956 38.7827C20.7947 38.2178 20.241 37.7615 19.5594 37.7633C18.8786 37.7651 18.3264 38.2243 18.3273 38.7893C18.3282 39.3543 18.882 39.8106 19.5628 39.8088C20.2443 39.807 20.7966 39.3477 20.7956 38.7827Z" fill="#FFCA05"/>
<path d="M20.7841 31.419C20.7832 30.8542 20.2295 30.3981 19.5479 30.3999C18.8671 30.4017 18.3149 30.8608 18.3158 31.4256C18.3168 31.9904 18.8705 32.4472 19.5513 32.4454C20.2329 32.4435 20.7851 31.9838 20.7841 31.419Z" fill="#FFCA05"/>
<path d="M20.7717 23.6473C20.7708 23.0825 20.2171 22.6257 19.5355 22.6275C18.8547 22.6294 18.3025 23.0891 18.3034 23.6539C18.3043 24.2187 18.858 24.6748 19.5388 24.673C20.2204 24.6712 20.7726 24.2121 20.7717 23.6473Z" fill="#FFCA05"/>
<path d="M20.7602 16.2832C20.7593 15.719 20.2056 15.2622 19.524 15.264C18.8432 15.2658 18.291 15.7255 18.2919 16.2897C18.2928 16.8545 18.8466 17.3113 19.5274 17.3095C20.2089 17.3077 20.7612 16.848 20.7602 16.2832Z" fill="#FFCA05"/>
<path d="M20.748 8.51114C20.7471 7.94616 20.1934 7.48987 19.5118 7.49168C18.831 7.49349 18.2788 7.95271 18.2797 8.51769C18.2806 9.08268 18.8344 9.53896 19.5152 9.53716C20.1967 9.53535 20.7489 9.07612 20.748 8.51114Z" fill="#FFCA05"/>
<path d="M20.7363 1.14786C20.7354 0.582877 20.1817 0.126591 19.5001 0.1284C18.8193 0.130208 18.2671 0.589431 18.268 1.15441C18.2689 1.7194 18.8226 2.17568 19.5034 2.17387C20.185 2.17206 20.7372 1.71284 20.7363 1.14786Z" fill="#FFCA05"/>
<path d="M11.9333 53.9423C11.9324 53.3773 11.269 52.9213 10.4511 52.9235C9.63321 52.9257 8.97039 53.3852 8.97132 53.9502C8.97224 54.5152 9.63656 54.9712 10.4545 54.969C11.2723 54.9668 11.9342 54.5073 11.9333 53.9423Z" fill="#FFCA05"/>
<path d="M11.9214 46.3745C11.9203 45.6965 11.2568 45.149 10.4389 45.1511C9.62102 45.1533 8.95836 45.7044 8.95947 46.3824C8.96059 47.0603 9.62505 47.6079 10.4429 47.6057C11.2608 47.6035 11.9226 47.0525 11.9214 46.3745Z" fill="#FFCA05"/>
<path d="M11.9094 38.8067C11.9085 38.2417 11.2451 37.7857 10.4272 37.7879C9.6093 37.79 8.94649 38.2496 8.94742 38.8146C8.94834 39.3795 9.61266 39.8355 10.4305 39.8334C11.2484 39.8312 11.9103 39.3717 11.9094 38.8067Z" fill="#FFCA05"/>
<path d="M11.8979 31.4431C11.897 30.8783 11.2336 30.4224 10.4157 30.4246C9.59781 30.4268 8.93499 30.8861 8.93592 31.4509C8.93684 32.0158 9.60116 32.4722 10.4191 32.4701C11.2369 32.4679 11.8988 32.0079 11.8979 31.4431Z" fill="#FFCA05"/>
<path d="M11.8855 23.6714C11.8845 23.1066 11.2211 22.6501 10.4033 22.6522C9.58539 22.6544 8.92259 23.1144 8.92352 23.6792C8.92444 24.2441 9.58875 24.6999 10.4066 24.6977C11.2245 24.6956 11.8864 24.2362 11.8855 23.6714Z" fill="#FFCA05"/>
<path d="M11.874 16.3072C11.8731 15.743 11.2097 15.2865 10.3918 15.2887C9.57388 15.2909 8.91106 15.7509 8.91199 16.3151C8.91292 16.8799 9.57724 17.3364 10.3951 17.3342C11.213 17.332 11.8749 16.872 11.874 16.3072Z" fill="#FFCA05"/>
<path d="M11.8615 8.53508C11.8606 7.97009 11.1972 7.51409 10.3793 7.51626C9.56143 7.51843 8.89861 7.97795 8.89954 8.54294C8.90047 9.10793 9.56479 9.56393 10.3827 9.56176C11.2006 9.55958 11.8625 9.10006 11.8615 8.53508Z" fill="#FFCA05"/>
<path d="M11.8501 1.17192C11.8491 0.606929 11.1857 0.15093 10.3678 0.153102C9.54995 0.155274 8.88714 0.614795 8.88806 1.17978C8.88899 1.74477 9.55331 2.20077 10.3712 2.1986C11.1891 2.19642 11.851 1.73691 11.8501 1.17192Z" fill="#FFCA05"/>
<path d="M2.55344 53.9676C2.55251 53.4026 1.99956 52.9463 1.31801 52.9481C0.636454 52.9499 0.0842484 53.4091 0.085176 53.9741C0.0861037 54.5391 0.639812 54.9954 1.32136 54.9936C2.00292 54.9918 2.55436 54.5325 2.55344 53.9676Z" fill="#FFCA05"/>
<path d="M2.54132 46.3998C2.54021 45.7218 1.98712 45.174 1.30558 45.1758C0.624044 45.1776 0.0720013 45.7283 0.0731144 46.4063C0.0742275 47.0843 0.628074 47.6321 1.30961 47.6303C1.99115 47.6285 2.54243 47.0777 2.54132 46.3998Z" fill="#FFCA05"/>
<path d="M2.52951 38.8321C2.52858 38.2671 1.97563 37.8108 1.29408 37.8126C0.612528 37.8144 0.0603227 38.2736 0.0612503 38.8386C0.0621779 39.4036 0.615886 39.8599 1.29744 39.8581C1.97899 39.8563 2.53044 39.397 2.52951 38.8321Z" fill="#FFCA05"/>
<path d="M2.51779 31.4682C2.51686 30.9034 1.96391 30.4473 1.28236 30.4491C0.600809 30.4509 0.0486037 30.91 0.049531 31.4748C0.0504583 32.0396 0.604168 32.4964 1.28572 32.4945C1.96727 32.4927 2.51872 32.033 2.51779 31.4682Z" fill="#FFCA05"/>
<path d="M2.50559 23.6966C2.50466 23.1318 1.95169 22.6751 1.27013 22.6769C0.588562 22.6787 0.0363455 23.1384 0.0372728 23.7032C0.0382002 24.268 0.59192 24.7241 1.27349 24.7223C1.95505 24.7205 2.50651 24.2614 2.50559 23.6966Z" fill="#FFCA05"/>
<path d="M2.49387 16.3326C2.49294 15.7684 1.93998 15.3116 1.25842 15.3135C0.576863 15.3153 0.0246527 15.775 0.025579 16.3392C0.0265064 16.904 0.580222 17.3607 1.26178 17.3589C1.94334 17.3571 2.49479 16.8974 2.49387 16.3326Z" fill="#FFCA05"/>
<path d="M2.48166 8.56046C2.48073 7.99548 1.92777 7.53919 1.2462 7.541C0.564636 7.54281 0.0124189 8.00203 0.0133465 8.56701C0.0142742 9.132 0.567995 9.58828 1.24956 9.58647C1.93113 9.58466 2.48259 9.12544 2.48166 8.56046Z" fill="#FFCA05"/>
<path d="M2.46994 1.1973C2.46901 0.632315 1.91605 0.176027 1.23448 0.177837C0.552917 0.179647 0.000700145 0.63887 0.00162778 1.20385C0.00255542 1.76883 0.556276 2.22512 1.23784 2.22331C1.91941 2.2215 2.47087 1.76228 2.46994 1.1973Z" fill="#FFCA05"/>
</svg>
